<svg width="67" height="67" viewBox="0 0 67 67" fill="none" xmlns="http://www.w3.org/2000/svg">
<path d="M11.167 53.0417V47.4583H16.7503V27.9167C16.7503 24.0549 17.9135 20.6351 20.2399 17.6573C22.5663 14.633 25.5906 12.6556 29.3128 11.725V9.77084C29.3128 8.60765 29.7083 7.63056 30.4993 6.83959C31.3368 6.00209 32.3371 5.58334 33.5003 5.58334C34.6635 5.58334 35.6406 6.00209 36.4316 6.83959C37.2691 7.63056 37.6878 8.60765 37.6878 9.77084V11.725C41.41 12.6556 44.4344 14.633 46.7607 17.6573C49.0871 20.6351 50.2503 24.0549 50.2503 27.9167V47.4583H55.8337V53.0417H11.167ZM33.5003 61.4167C31.9649 61.4167 30.6389 60.8816 29.5222 59.8115C28.4521 58.6948 27.917 57.3688 27.917 55.8333H39.0837C39.0837 57.3688 38.5253 58.6948 37.4087 59.8115C36.3385 60.8816 35.0357 61.4167 33.5003 61.4167ZM22.3337 47.4583H44.667V27.9167C44.667 24.8458 43.5736 22.217 41.3868 20.0302C39.2 17.8434 36.5712 16.75 33.5003 16.75C30.4295 16.75 27.8007 17.8434 25.6139 20.0302C23.4271 22.217 22.3337 24.8458 22.3337 27.9167V47.4583Z" fill="white"/>
</svg>
